<?xml version="1.0" encoding="UTF-8"?>
<svg id="Capa_1" xmlns="http://www.w3.org/2000/svg" version="1.1" viewBox="0 0 2633.53 382.26">
  <!-- Generator: Adobe Illustrator 30.6.0, SVG Export Plug-In . SVG Version: 2.1.4 Build 109)  -->
  <defs>
    <style>
      .st0 {
        fill: #fff;
      }
    </style>
  </defs>
  <g id="cVQn50">
    <g>
      <path class="st0" d="M479.12,188.64c-31.52.55-50.83,25.19-50.95,56.07l-.49,131.21-102.75-.11V110.27s-93.03-.06-93.03-.06l.03,265.66-114.52.02V110.29s-117.35-.07-117.35-.07l-.07-91.11h348.66s.05,82.9.05,82.9h60.34s6.88,40.73,6.88,40.73c17.54-41.17,64.4-57.11,106.15-41.22l.15,86.37-43.11.76Z"/>
      <path class="st0" d="M2057.87,153.84c14.62-39.61,62.44-52.72,104.05-56.75,43.81-4.24,91.89.96,128.36,25.57,20.7,13.97,31.24,36.86,30.28,61.5h-95.51c-.66-27.96-40.58-31.88-66.1-21.79-4.86,1.92-8.49,8.34-8.49,12.72,0,4.98,4.12,12.01,9.78,13.23l44.77,9.62,60.74,12.29c21.59,4.37,41.19,18.05,52.7,37.14,10.55,17.51,10.45,38.46,7.4,58.03-4.14,26.52-20.11,46.49-44.15,58.08-24.07,11.6-49.79,16.78-76.91,18.1-49.47,2.4-103.42-4.1-138.69-39.71-14.71-14.85-21.87-34.5-21.01-55.23l95.44-.04c-.38,13.96,6.47,24.96,19.57,29.42,27.22,9.27,68.72,5.25,69.07-15.18.12-6.83-4.82-13.53-12.12-15.19l-45.51-10.33c-37.24-8.46-90.41-11.66-111.51-51.25-11.45-21.48-9.13-45.76-3.2-68.57l-1.12-1.76-81.64,222.12h-100.68s-43.65-154.21-43.65-154.21l-44.12,154.23-100.63.02-100.12-273.86,110.72-.09,43.61,165.24,45.16-165.17,102.28-.06,43.39,165.24,44.25-165.11,100.32-.09-18.15,50,1.43,1.83Z"/>
      <path class="st0" d="M1512.9,276.61l99.78-.05c.57,61.45-45.57,94.42-103.64,102.5-81.9,11.4-179.32-4.77-199.8-94.29-6.76-29.57-6.89-59.29-.42-89.15,9.34-43.07,39.7-75.86,82.24-89.52,45.94-14.76,96.73-13.95,142.28,1.8,40.61,14.04,67.02,46.77,75.3,88.17,3.95,19.73,4.53,39.01,4.4,60.34l-205.28.02c-.81,27.5,7.34,50.64,35.14,58.02,13.34,2.62,27,2.46,40.41-.09,17.33-4.76,29.36-18.16,29.58-37.76ZM1508.41,208.18c.68-17.68-7.46-35.17-24.36-42.21-17.05-7.11-37.78-5.59-53.85,3.33-14.17,7.87-20.58,23.08-22.19,38.89h100.4Z"/>
      <path class="st0" d="M808.96,375.82l-84.25.09-7.01-40.93c-30.79,39.88-79.26,54.26-127.95,43.97-44.99-9.51-64.63-49.58-64.74-94.27l-.25-101.92-.09-80.7,103.4-.08.11,170.52c0,10.5,5.3,21.61,13.42,27.38,12.47,8.86,28.66,7.92,42.2,1.25,12.45-6.13,20.83-19.56,22.25-35.36l.02-163.76h102.89s0,273.81,0,273.81Z"/>
      <g>
        <path class="st0" d="M2633.53,232.77c0,79.12-64.14,143.26-143.26,143.26s-143.26-64.14-143.26-143.26,64.14-143.26,143.26-143.26,143.26,64.14,143.26,143.26ZM2602.35,232.79c0-61.92-50.19-112.11-112.11-112.11s-112.11,50.19-112.11,112.11,50.19,112.11,112.11,112.11,112.11-50.19,112.11-112.11Z"/>
        <path class="st0" d="M2518.72,297.05l-.58-32.93c-.15-8.55-4.88-16.41-14.8-16.53l-37.04-.44-.17,49.99-28.49-.31v-132.82s77.31.76,77.31.76c20.7.2,35.4,16.8,34.14,36.44.15,15.78-8.89,27.07-25.03,32.56,15.16,2.56,22.19,11.72,22.46,25.43l.73,37.83h-28.53ZM2501.23,225.06c12.63-.08,19.14-9.08,19.05-19.43-.09-10.88-8.1-18.07-19.84-18.09l-34.19-.05-.02,37.79,35-.22Z"/>
      </g>
      <g>
        <polygon class="st0" points="1071.16 19.15 1188.33 19.12 1062.36 375.89 929.45 375.89 802.93 19.13 925.35 19.24 998.02 259.96 1071.16 19.15"/>
        <rect class="st0" x="1194.29" y="102.01" width="103.17" height="273.89"/>
        <rect class="st0" x="1210.99" y="-16.69" width="69.8" height="103.19" transform="translate(1210.809 1280.7897) rotate(-89.992)"/>
      </g>
    </g>
  </g>
</svg>